<?xml version="1.0" encoding="utf-8"?>
<!-- Generator: Adobe Illustrator 23.0.1, SVG Export Plug-In . SVG Version: 6.00 Build 0)  -->
<svg version="1.1" id="Layer_1" xmlns="http://www.w3.org/2000/svg" xmlns:xlink="http://www.w3.org/1999/xlink" x="0px" y="0px"
	 viewBox="0 0 80 80" style="enable-background:new 0 0 80 80;" xml:space="preserve">
<g>
	<path d="M15.5,44.2h-2.6c-0.3,0-0.4-0.1-0.4-0.4V32.5c0-0.3,0.1-0.4,0.4-0.4h2.6c0.3-0.9,0.5-1.6,0.8-2.5h-1.4V16
		c1.3-0.4,2.1-1.6,2.1-2.9c0-1.8-1.4-3.1-3.1-3.1s-3.1,1.4-3.1,3.1c0,1.4,0.9,2.5,2.1,2.9v13.5c-1.6,0-2.9,1.4-2.9,2.9v11.3
		c0,1.6,1.3,2.9,2.9,2.9h3.4C15.9,45.8,15.6,45,15.5,44.2z"/>
	<path d="M67.1,29.6h-3.8c0.3,0.9,0.5,1.6,0.8,2.5h3c0.3,0,0.4,0.1,0.4,0.4v11.3c0,0.3-0.1,0.4-0.4,0.4h-3c-0.3,0.9-0.5,1.6-0.8,2.5
		h3.8c1.6,0,2.9-1.3,2.9-2.9V32.5C70,30.9,68.7,29.6,67.1,29.6z"/>
	<path d="M61.7,54.4L61.7,54.4c-1.1-0.8-2.6-0.5-3.5,0.5c-9.8,10.8-27,10.9-37,0c-0.9-1-2.4-1.3-3.5-0.5l0,0c-1.6,1.1-2,3.4-0.9,4.9
		c10.5,14.3,35.1,14.3,45.7,0C63.8,57.8,63.5,55.5,61.7,54.4z"/>
	<path d="M21.7,30.8l0.8-0.4c11.4-4.9,23.1-4.9,34.6,0l0.8,0.4v20.8c6.7-8.8,5.9-21.3-2.1-29.3c-8.8-8.8-23.1-8.8-31.9,0
		c-8,8-8.7,20.5-2.1,29.3C21.7,51.5,21.7,30.8,21.7,30.8z"/>
	<path d="M24.2,32.4v21.9c8.7,8.3,22.5,8.3,31.1,0V32.4C45,28.3,34.5,28.3,24.2,32.4z M53.2,46.7H26.4V34.9h26.7V46.7z"/>
	<polygon points="50.7,37.3 44.6,37.3 37.6,44.2 50.7,44.2 	"/>
</g>
</svg>
